<?xml version="1.0" encoding="utf-8"?>
<!-- Generator: Adobe Illustrator 21.1.0, SVG Export Plug-In . SVG Version: 6.00 Build 0)  -->
<svg version="1.1" id="Layer_1" xmlns="http://www.w3.org/2000/svg" xmlns:xlink="http://www.w3.org/1999/xlink" x="0px" y="0px"
	 viewBox="0 0 615.3 460" style="enable-background:new 0 0 615.3 460;" xml:space="preserve">
<g>
	<path d="M81.7,175.5c53.1-27.9,110.3-50.1,170.1-57.9c29.9-3.8,60.4-4,90.2,0.6c30.7,4.7,60.5,14.2,89.9,24.2
		c32.4,11,65.6,21.7,95.1,39.7c0.7,0.4,1.7,0.2,2.1-0.5c2.6-4.4,4.5-8.8,6.3-13.5c4.5-12.2,10-24,15-36.1
		c6.5-15.3,13.6-30.6,18.4-46.5c1.6-5.3,3.1-9.7-2.8-12c-21.5-8.9-42.4-18.6-64.3-26.6C474,36.8,445.8,31.2,417,25.4
		c-24.6-5-49.4-9.9-74.4-12.9c-25.5-3.1-51.5-4.7-77.2-3.4c-23.8,1.2-47.5,4.1-71,8.3c-23.9,4.2-47,11.2-70,19.1
		c-26.2,9-52.1,19.7-75.3,35.2c-5.5,3.6-10.8,7.7-16,11.8c-0.5,0.4-0.5,1.3-0.2,1.8c16,29.7,30.7,59.9,46.7,89.6
		c0.9,1.7,3.4,0.2,2.6-1.5c-16-29.7-30.7-59.9-46.7-89.6c-0.1,0.6-0.2,1.2-0.2,1.8C57.4,67.7,82.9,55,109.4,45
		c22.5-8.5,45.5-16.4,69-21.5c46-10.1,93-13.7,140-10.3c25,1.8,49.9,5.6,74.5,10.4c26.7,5.1,54,9.6,80.1,17.1
		c25,7.2,49.1,17.1,72.9,27.5c4.3,1.9,8.7,3.8,13,5.7c2,0.8,6.8,2.2,7.9,3.3c0.4,0.5,0.3,2.3,0,3.7c-1,4.9-3,9.7-4.6,14.3
		c-3.5,9.5-7.5,18.7-11.3,28c-5.7,13.5-11.8,26.9-17.1,40.6c-2.2,5.7-4.2,11.1-7.3,16.4c0.7-0.2,1.4-0.4,2.1-0.5
		c-25.9-16-54.8-25.9-83.4-35.8c-30.6-10.5-61.2-21-93-26.9c-59.4-11-120.2-3.1-177.3,15.5c-32.6,10.6-64.2,24.5-94.5,40.5
		C78.6,173.8,80.1,176.4,81.7,175.5L81.7,175.5z"/>
</g>
<g>
	<path d="M48.1,116.6c0.3,0.2,0.3-0.7-0.2-0.5c-1.8,0.6-4.2,3.2-5.8,4.1c-13.6,8.8-27.6,17-41.5,25.3c-1,0.6-1,2.5,0.4,2.7
		c17.2,2.6,34.1,6.7,50.6,12.5c1.7,0.6,4.6,1.1,6,2.3c3.7,3.1,2,6.1,1,9.5c-1.2,4.4-2.5,8.8-3.6,13.2c-2.6,9.1-5,18.1-7.6,27.3
		c-0.4,1.4,1.1,2.2,2.2,1.7c22.7-9.9,44.7-20.9,66.6-32.3c1.7-0.9,0.2-3.4-1.5-2.6c-22,11.3-44.1,22.3-66.7,32.2
		c0.7,0.6,1.5,1.1,2.2,1.7c3-10.6,5.9-21.3,8.9-31.9c1.3-4.7,3.4-9.9,4-14.7c0.3-2.7-0.5-4.6-2.9-6c-3.6-2.1-8.3-3.3-12.2-4.5
		c-4.9-1.7-9.9-3.2-14.9-4.5c-10.3-2.9-20.8-4.9-31.3-6.5c0.1,0.9,0.2,1.8,0.4,2.7c14.9-9,30.4-17.4,44.7-27.4
		c2.1-1.5,6.4-4.2,2.8-6.6C48,112.9,46.5,115.5,48.1,116.6z"/>
</g>
<g>
	<path d="M104.8,163.4c3.3,6.3,6.2,12.7,9,19.2c0.8,1.8,3.3,0.2,2.6-1.5c-2.8-6.5-5.8-12.9-9-19.2
		C106.5,160.2,103.9,161.7,104.8,163.4z"/>
</g>
<g>
	<path d="M115.7,179.4c-10.1-3.2-19.9-4.8-30.4-5.5c-1.9-0.1-1.9,2.9,0,3c10.2,0.8,19.8,2.4,29.6,5.4
		C116.7,182.9,117.5,180,115.7,179.4z"/>
</g>
<g>
	<path d="M560,109.6c17.1,9,34.7,16.9,51.7,26V133c-9.8,4.1-19.2,9.1-29.1,13.2c-5.3,2.3-10.8,4.2-16.4,6c-1.6,0.5-3.8,0.6-5,1.9
		c-0.3,0.3-0.3,1.5-0.2,1.4c-0.3,0.4-1.1,0.2-1.4,0.8c-0.9,1.5-0.2,4.8-0.2,6.5v57.1c0.8-0.4,1.5-0.9,2.3-1.3
		c-21.3-15.4-45-25.3-69.7-34.2c-0.1,1-0.3,2-0.4,2.9c13-0.7,25.2-5.5,38.1-6.2c1.9-0.1,1.9-3.1,0-3c-13,0.7-25.2,5.5-38.1,6.2
		c-1.7,0.1-2,2.4-0.4,2.9c24.3,8.7,47.9,18.6,69,33.8c0.9,0.7,2.3-0.2,2.3-1.3v-36.4v-18.2V161c0-0.4-0.2-4.3-0.5-3
		c0,0.1-0.2,0.8,0.3,0.1c0.3-0.4,0.9-0.7,1.2-1.2c0.2-0.4,0.3-1.1,0.6-1.4c1-1.1-0.6,0.6-0.3,0.5c2.6-1.1,5.5-1.7,8.2-2.6
		c4.3-1.5,8.7-3.2,12.9-5c9.6-4.1,18.8-8.9,28.5-12.9c1-0.4,0.9-2.1,0-2.6c-17-9.2-34.6-17.1-51.7-26
		C559.8,106.1,558.4,108.7,560,109.6L560,109.6z"/>
</g>
<g>
	<path d="M494.2,185.3c3.7-5.4,5.6-11.8,9.2-17.3c1.1-1.6-1.5-3.1-2.6-1.5c-3.5,5.5-5.5,11.9-9.2,17.3
		C490.6,185.4,493.1,186.9,494.2,185.3z"/>
</g>
<g>
	<path d="M90.4,76.4c1.3,0.2,3.1,0.4,3.8,0.3c2-0.1,3,0.8,7.1,6.7c7.3,10.3,11.2,20.1,11.3,28.7c0,2.5,0.1,4.9,0.1,5.5
		c0,0.7,0.9,1.7,2.3,2.7c3.8,2.7,4,7.1,0.4,8.1c-2,0.6-3.1,0-3.5-1.6c-0.5-1.8-1.4-1.7-3.1,0.3c-3.1,3.7-10.3,5.4-18,4.1
		c-7.1-1.1-12.8-4.6-16.7-10.2c-2.9-3.9-4.6-11.2-4.5-18.6c0.1-12.2,3.2-19.5,9.9-23.7C82.7,76.9,87.1,75.9,90.4,76.4L90.4,76.4z
		 M82.1,84.9c-4.1,3-6.1,9.6-5.8,19.1c0.3,9.5,2.7,14.7,8,18c4.6,3,11.9,4,16.9,2.7c1.8-0.5,3.8-2.4,3.5-3.3c-0.1-0.2-2-1.8-4.3-3.3
		c-4.4-3.1-5.6-4.7-4.3-6.8c1.5-2.4,3-2.2,7.6,1.1c1.3,0.8,2.4,1.4,2.5,1.1c0.5-0.8-0.2-5.1-1.3-9.2c-1.3-4.4-3.8-9.7-7.5-15.3
		c-2.1-3.1-2.8-3.7-4.2-4c-1-0.2-1.9-0.7-2.1-1.2c-0.1-0.4-1.2-0.9-2.3-1.1C86.5,82.6,84.6,83.1,82.1,84.9L82.1,84.9z M112.8,72.3
		c1.1,0.3,1.7,1.7,8.2,18.1c8.1,20.5,8.9,21.9,13.6,23.9c4.7,2.1,7.3-0.3,7.7-6.8c0.5-8.5-1.3-18-5.2-28.6c-2.7-6.9-3-7.9-2.3-8.9
		c0.9-1.4,1.9-1.8,3.6-1.4c1.2,0.2,1.7,1,3.4,4.3c5.7,11.4,8.9,32.5,6.2,40.5c-3.4,9.6-14.1,10.8-22,2.6c-2.4-2.5-2.5-2.7-10.1-21.8
		c-7.4-18.5-7.7-19.3-7-20.4C109.7,72.6,111.3,71.9,112.8,72.3L112.8,72.3z M151.9,56.7c1.5,0.7,1.2-0.3,13.4,35.3
		c4.8,13.9,4.8,14.2,4.1,15.6c-0.9,1.8-2.4,2.3-4.1,1.4c-1.1-0.6-1.6-1.4-2.4-3.9c-0.6-1.8-4.3-12.6-8.4-24.2l-7.3-21l1-1.6
		C149.3,56.2,150.1,55.9,151.9,56.7L151.9,56.7z M196.4,53.6c3.5,2.7,4.7,5.2,3.2,7.3c-1.3,1.7-2.9,1.9-4.3,0.5
		c-4.3-3.7-4.9-4-6.5-3.8c-7.9,1.1-11.8,13.5-9.1,28.3c1.7,8.6,3.4,11.4,8.2,12.9c3.4,1.1,8.6,0.4,12.3-1.7c1.5-0.9,4.8-3.3,7.4-5.2
		c5-4,6.7-4.4,8.2-2.1c1.3,2,0.2,3.8-4.6,7.8c-6.2,5-9.2,6.5-15,7.6c-14.3,2.7-21.8-4.8-23.5-23.5c-0.6-6.9,0.1-14.1,2-19
		c1.3-3.5,5.3-8.5,8.2-9.9C187.5,50.1,192.2,50.5,196.4,53.6L196.4,53.6z M228.3,45c1.3,1.1,1.6,2.7,0.9,4.4s1.4,17.1,2.3,17.1
		c0.8-0.1,4.9-5.8,10.6-14.8c2.1-3.4,4.2-6,4.9-6.3c1.6-0.6,3.9,0.9,4.3,2.7c0.3,1.4-5.9,11.1-13.8,21.9l-4.2,5.7l1.4,0.8
		c6.4,3.4,18.2,11.6,23,15.8c3,2.6,3.6,5,2,6.5c-1.8,1.6-3.7,1.2-5.9-1.1c-3.7-3.8-20-14.9-20.6-14c-0.2,0.2,0.2,4.2,0.9,9
		c1,7.5,1.1,8.7,0.4,9.6c-1.1,1.5-3.2,1.5-4.7,0c-1.4-1.2-1.5-1.4-2.2-9.9l-0.7-8.7l-1.7-0.5c-3.3-0.8-3.8-3.4-1.4-6.3l1.8-2.1
		l-1.8-14.1c-1.7-13.4-1.8-14.2-0.9-15.3C223.8,43.9,226.7,43.6,228.3,45L228.3,45z M275.7,77.2c4.1,4.8,4.4,9.8,1,13.2
		c-1,1-2.2,1.8-2.6,1.8c-0.4,0-1,0.4-1.4,0.9s-1.4,0.9-2.5,1c-2.1,0.1-3.5-1.4-3.6-3.6c-0.1-1.8,0.9-2.8,3.5-3.6
		c2.6-0.9,2.7-2.7,0.3-5.7c-2.1-2.8-2.3-3.8-0.9-5.4C271.3,73.8,273.2,74.3,275.7,77.2L275.7,77.2z M333.2,40.4
		c4.9,0.5,5.7,0.7,9.4,2.9c5.1,2.9,7.4,5.8,10.1,12.2c2.8,6.8,3.2,10.9,1.6,16.3c-1.9,6.4-4.4,10.1-10.4,15.2
		c-6,5-10.1,7.2-16.4,8.8c-2.4,0.6-4.8,1.5-5.3,1.9c-1.3,1-4,0.8-4.8-0.3c-0.3-0.5-1.4-1-2.4-1.3c-4-1.2-3.4-6.1,0.8-6.3
		c1.5,0,1.2,1.3,4.2-16.7c0.9-5,2.4-12.5,3.3-16.6c2.4-10.4,2.4-9.7,0.6-9.6c-3,0.1-4.6-3.9-2.3-5.7c0.5-0.5,2.3-0.9,3.7-1.1
		C326.6,40,330.3,40.1,333.2,40.4L333.2,40.4z M332.2,47.1c-1.1,1.5-6.7,29.3-7.8,38.5c-0.6,4.8-0.6,4.8,5.9,2.2
		c3.1-1.2,5.5-2.8,8.9-5.6c9.2-7.7,11.2-15,7.3-24.6c-1.7-4.2-3.9-6.9-7.5-8.9C336,46.9,332.9,46.2,332.2,47.1L332.2,47.1z
		 M402.7,61.3c1.6,4.7,0.8,9.4-2.3,14.3c-2.4,3.5-5.5,6.3-9.7,8.2c-1.8,0.8-3.3,1.6-3.4,1.8c0,0.2,1,1.4,2.5,2.7
		c4.4,4.1,9,12.9,8.3,15.8c-0.4,1.6-2.4,2.6-4,2.1c-1.2-0.3-1.7-1.1-2.8-3.7c-0.7-1.9-2-4.3-2.9-5.6c-2-3.2-6.6-7-9.4-7.9l-2.3-0.8
		l-2.9,7.9c-2.7,7-3.1,8-4.3,8.5c-1.8,0.8-3.3,0.1-3.8-1.8c-0.5-1.5-0.3-2.3,2.1-9c1.9-5.5,2.6-8,2.5-9.5c0-1.8,0.1-2.4,1.2-3.4
		c0.9-0.9,2.4-4.4,5.4-13.2c2.3-6.6,4.1-12.2,4-12.4c-0.3-0.9-3.4-0.9-4.9,0c-1.8,1.1-3.8,0.7-4.8-1c-0.9-1.5-0.5-3,1.4-4.6
		c1.9-1.8,5.2-2.1,11-1C394.5,50.5,400.6,54.5,402.7,61.3L402.7,61.3z M387.9,56.5c-0.9,1.3-8,22.1-7.7,22.7
		c0.5,0.9,6.3-0.6,9.7-2.5c8.1-4.5,9.5-14,2.7-18.3C389.4,56.3,388.3,55.9,387.9,56.5z M441.5,60.6l2,0.4c1.1,0.2,2.3,0.8,2.5,1.3
		c0.5,1,0.5,8.8-0.1,18.6c-0.3,5.6-0.2,7.2,0.7,8.5c1.2,1.9,1,3.5-0.6,5c-1,1-1.2,2-2.1,10.5c-0.7,6.6-0.8,10.4-0.5,12.2
		c0.7,3.3,0.6,4.1-0.9,5.1c-1.4,1-3.7,0.5-4.6-1.1c-1.6-2.8-1.7-7-0.1-21.1c0.3-2.5,0.3-4.7,0.1-5c-0.3-0.5-15.8-0.7-16.6-0.2
		c-0.2,0.2-2.9,3.7-5.8,7.9c-4.4,6.3-5.6,7.6-6.8,7.8c-2.1,0.3-3.9-1.7-3.4-3.6c0.2-0.8,2.5-4.4,5.1-8.2c2.7-3.6,4.9-7.2,5-7.9
		s0.9-1.7,1.8-2.4s4.3-4.6,7.7-8.8c3.4-4.1,8.4-10.2,11.3-13.5L441.5,60.6L441.5,60.6z M439.2,73.4c-0.5-0.1-10.5,11.6-11.5,13.5
		c-0.7,1.3,0,1.5,5.5,1.5c5.8,0,5.8,0.1,6.1-6.5c0.1-3,0.3-6,0.3-6.9S439.4,73.4,439.2,73.4L439.2,73.4z M468.7,67.3
		c0.6,1.2,0.9,18.7,0.4,26.2c-0.2,3.2-0.2,5.8-0.1,5.8c0.2,0.1,1.6-1.8,3.2-4.1c4.6-7,8.6-11.3,10.2-11.4c2.8,0,3.2,1,4.2,14.1
		c1,11,1.7,14.6,2.3,11.8c0.8-3.4,15.8-27.1,18.3-28.9c1.6-1.1,3.8-0.3,4.5,1.6c0.5,1.5,0.4,1.7-0.8,3.5c-0.8,1.1-3.2,4.6-5.2,7.8
		c-5.1,7.6-10.7,17.6-14.6,26.1c-1.7,3.8-3.5,7.3-4.1,7.7c-1.4,1.1-3.3,0.5-4.1-1.3c-0.4-0.8-1.2-7.7-1.9-15.5
		c-0.6-7.7-1.4-14-1.7-13.9c-1.4,0.1-8.3,12.8-11.6,21.3c-1.5,3.8-2.1,4.6-3.4,5.2c-1.3,0.5-1.9,0.5-2.8-0.2
		c-0.7-0.5-1.3-1.3-1.4-1.9c0-0.6,0.4-5.8,1-11.6c1.2-12.9,1.7-22.2,1.4-33.7c-0.2-6.9,0-9,0.7-9.8
		C464.2,65.1,467.9,65.8,468.7,67.3L468.7,67.3z M519.1,116.6c1.1,1.9,1.2,2.7,0.7,4.4c-1.2,4.3-6.6,5.5-8.7,1.8
		c-0.8-1.4-0.8-2.1,0-5c0.8-3,1.1-3.4,2.3-3.8C515.8,113.1,517.7,114,519.1,116.6z M535.3,83.5c0,0.2-1.1,2-2.3,4
		c-2.5,4.3-9.1,18.3-9.7,20.7c-0.6,2-3,3.8-4.4,3.4c-2.3-0.6-2.9-1.8-2.1-4.4c1.3-4.5,9.2-21.5,11.8-25.3
		C529.1,81.5,535.5,82.8,535.3,83.5z"/>
</g>
</svg>
