<svg xmlns="http://www.w3.org/2000/svg" viewBox="2 0 93 338">
    <path opacity=".13" d="M92.5 13.2l-2.3 27.1H54.4l2 3h38V19.7l-1.9-6.5zM37.6 54.3v40h-36l3.8 7h43.2v-32l-11-15zM37.6 0v40h-36l3.8 7h43.2V15.1L37.6 0z"/>
    <path fill="#EE7AAA" d="M8.6 0h36v30h-36V0z"/>
    <path fill="#F3A0C5" d="M8.6 30l-7 10V10l7-10v30z"/>
    <path fill="#DB5B90" d="M44.6 30h-36l-7 10h36l7-10z"/>
    <path fill="#D3CCBD" d="M8.6 54.3h36v30h-36v-30z"/>
    <path fill="#E0DBCF" d="M8.6 84.3l-7 10v-30l7-10v30z"/>
    <path fill="#B8B09C" d="M44.6 84.3h-36l-7 10h36l7-10z"/>
    <g fill="none" stroke="#FFF" stroke-width="2" stroke-linecap="round" stroke-miterlimit="10">
        <path d="M19.6 62.3l14 14M33.6 62.3l-14 14"/>
    </g>
    <path opacity=".13" d="M37.6 111.6v40h-36l3.8 7h43.2v-31.9l-11-15.1z"/>
    <path fill="#5CA8DD" d="M8.6 111.6h36v30h-36v-30z"/>
    <path fill="#A6D7F5" d="M8.6 141.6l-7 10v-30l7-10v30z"/>
    <path fill="#397EA9" d="M44.6 141.6h-36l-7 10h36l7-10z"/>
    
    <path opacity=".13" d="M37.6 167.5v40h-36l3.8 7h43.2v-31.9l-11-15.1z"/>
    <path fill="#3665A6" d="M8.6 167.5h36v30h-36v-30z"/>
    <path fill="#397EC1" d="M8.6 197.5l-7 10v-30l7-10v30z"/>
    <path fill="#264973" d="M44.6 197.5h-36l-7 10h36l7-10z"/>
    
    <path opacity=".13" d="M37.6 223.5v40h-36l3.8 7h43.2v-31.9l-11-15.1z"/>
    <path fill="#DE4937" d="M8.6 223.5h36v30h-36v-30z"/>
    <path fill="#E26359" d="M8.6 253.5l-7 10v-30l7-10v30z"/>
    <path fill="#C84433" d="M44.6 253.5h-36l-7 10h36l7-10z"/>
    
    <path opacity=".13" d="M37.6 278.7v39.9h-36l3.8 7h43.2v-31.8l-11-15.1z"/>
    <path fill="#D3CCBD" d="M8.6 278.7h36v30h-36v-30z"/>
    <path fill="#E0DBCF" d="M8.6 308.6l-7 10v-30l7-9.9v29.9z"/>
    <path fill="#B8B09C" d="M44.6 308.6h-36l-7 10h36l7-10z"/>
    <path fill="#F3A0C5" d="M54.4 40.3l2-2v-30l-2 2.1v29.9z"/>
    <path fill="#DB5B90" d="M90.4 40.3h-36l2-2h36l-2 2z"/>
    <path fill="#EE7AAA" d="M56.4 8.3h36v30h-36v-30z"/>
    <path opacity=".13" d="M92.2 67.3l-2.3 27H54.1l2 3h38V73.8l-1.9-6.5z"/>
    <path fill="#E0DBCF" d="M54.1 94.3l2-2v-30l-2 2v30z"/>
    <path fill="#B8B09C" d="M90.1 94.3h-36l2-2h36l-2 2z"/>
    <path fill="#D3CCBD" d="M56.1 62.3h36v30h-36v-30z"/>
    <path opacity=".13" d="M92.2 291.9L89.9 319H54.1l2 2.9h38v-23.5l-1.9-6.5z"/>
    <path fill="#E0DBCF" d="M54.1 318.9l2-2v-30l-2 2.2v29.8z"/>
    <path fill="#B8B09C" d="M90.1 318.9h-36l2-2h36l-2 2z"/>
    <path fill="#D3CCBD" d="M56.1 286.9h36v30h-36v-30z"/>
    <g fill="none" stroke="#FFF" stroke-width="2" stroke-linecap="round" stroke-miterlimit="10">
        <path d="M67.1 70.3l14 14M81.1 70.3l-14 14"/>
    </g>
    <path opacity=".13" d="M92.2 124.6l-2.3 27.1H54.1l2 2.9h38v-23.5l-1.9-6.5z"/>
    <path fill="#A6D7F5" d="M54.1 151.6l2-2v-30l-2 2.2v29.8z"/>
    <path fill="#397EA9" d="M90.1 151.6h-36l2-2h36l-2 2z"/>
    <path fill="#5CA8DD" d="M56.1 119.6h36v30h-36v-30z"/>
    
    <path opacity=".13" d="M92.2 180.7l-2.3 27H54.1l2 3h38v-23.5l-1.9-6.5z"/>
    <path fill="#397EC1" d="M54.1 207.7l2-2v-30l-2 2.1v29.9z"/>
    <path fill="#264973" d="M90.1 207.7h-36l2-2h36l-2 2z"/>
    <path fill="#3665A6" d="M56.1 175.7h36v30h-36v-30z"/>
    
    <path opacity=".13" d="M92.2 236.5l-2.3 27H54.1l2 3h38V243l-1.9-6.5z"/>
    <path fill="#E26359" d="M54.1 263.5l2-2v-30l-2 2.1v29.9z"/>
    <path fill="#C84433" d="M90.1 263.5h-36l2-2h36l-2 2z"/>
    <path fill="#DE4937" d="M56.1 231.5h36v30h-36v-30z"/>
    
</svg>