<?xml version="1.0" encoding="utf-8"?>
<!-- Generator: Adobe Illustrator 21.1.0, SVG Export Plug-In . SVG Version: 6.00 Build 0)  -->
<svg version="1.1" baseProfile="tiny" id="Layer_1" xmlns="http://www.w3.org/2000/svg" xmlns:xlink="http://www.w3.org/1999/xlink"
	 x="0px" y="0px" viewBox="0 0 615.3 460" xml:space="preserve">
<g>
	<path fill="none" stroke="#000000" stroke-width="3" stroke-linecap="round" stroke-linejoin="round" stroke-miterlimit="10" d="
		M400.5,415.5c-3.2,0.4-6.2,0.9-9.4,1.5c-0.9,0.2-1.9,0.4-2.7,0.9c-1,0.7-1.6,1.9-2,3c-0.8,2.2-1.4,4.4-1.6,6.8
		c-0.4,4.2,0.8,9.2,4.5,11.2c2.5,1.4,5.4,1.2,8.3,1c3-0.2,6.2-0.6,8.5-2.6c1.3-1.1,2.1-2.7,2.6-4.2c1.1-3.4,0.5-7.3-1.5-10.2
		c-2-3-5.2-5-8.8-5.5 M430,403.8c-3.1,0.1-6.4,0.4-8.7,2.3c-1.9,1.6-2.8,4-3,6.4s0.2,4.8,0.6,7.2c0.1,0.9,0.3,1.7,0.7,2.5
		c0.3,0.6,0.8,1,1.3,1.4c4.2,3.5,10.2,4.9,15.7,3.5c1.1-0.3,2.2-0.7,3.1-1.4c2.6-2.1,2.8-5.9,2.1-9.2s-2-6.4-4.1-9s-5.1-4.4-8.5-4.9
		 M409.1,422.4c1.3-1.2,2.7-2.4,4.3-2.9c1.7-0.5,3.7-0.3,4.8,1.1 M440.6,408.1c1-3.6,2.4-7.2,4.2-10.5c1.5-2.8,3.4-5.4,5.9-7.2
		s6-2.6,9-1.4c1.3,0.5,2.5,1.6,2.8,3"/>
	<path fill="none" stroke="#000000" stroke-width="3" stroke-linecap="round" stroke-linejoin="round" stroke-miterlimit="10" d="
		M392.9,416.8c0.8-1.8,1.6-3.5,2.4-5.3c0.9-2,1.7-3.8,2.9-5.6c2.7-4.3,6.6-7.7,10.9-10.3c1.2-0.7,2.4-1.4,3.6-1.5
		c1.4,0,2.8,0.8,3.1,2.1"/>
</g>
<g>
	<path fill="none" stroke="#000000" stroke-width="3" stroke-linecap="round" stroke-linejoin="round" stroke-miterlimit="10" d="
		M448.2,205.6c-4.9,0.9-9.9,1.8-14.9,2.7c-1.7,0.3-3.4,0.6-4.8,1.6s-2.4,2.9-1.8,4.4c0.7,1.9,3,2.7,4.9,3.1
		c3.5,0.8,7.1,1.6,10.6,1.2c3.3-0.3,6.4-1.6,9.5-2.9c1.5-0.6,3.2-1.4,3.9-2.8c1.1-1.9,0.2-4.3-1.5-5.6s-4-1.5-6.1-1.1"/>
	<path fill="none" stroke="#000000" stroke-width="3" stroke-linecap="round" stroke-linejoin="round" stroke-miterlimit="10" d="
		M425.9,214c1.5,8.5,2.9,17.1,4.3,25.5c0.1,0.8,0.3,1.6,0.6,2.3c0.4,0.9,1.2,1.6,1.9,2.3c3.7,3.2,8.8,4.7,13.7,4.3s9.6-2.9,12.7-6.6
		"/>
	<path fill="none" stroke="#000000" stroke-width="3" stroke-linecap="round" stroke-linejoin="round" stroke-miterlimit="10" d="
		M456.2,210.5c1.3,8.6,2.6,17.1,3.8,25.7c0.3,2.2,0.5,4.8-1.2,6.3"/>
	<path fill="none" stroke="#000000" stroke-width="3" stroke-linecap="round" stroke-linejoin="round" stroke-miterlimit="10" d="
		M457.5,219.1c-0.5-2.3,1.5-3.4,3.4-4.6c2.1-1.2,4.8-1,6.6,0.6c1.8,1.5,2.5,3.9,2.8,6.3c0.5,3.2,0.6,6.5-1.2,9.2
		c-1.9,2.8-5.9,3.9-9,2.6"/>
	<path fill="none" stroke="#000000" stroke-width="3" stroke-linecap="round" stroke-linejoin="round" stroke-miterlimit="10" d="
		M458.4,223.9c0.8-1.7,1.4-5,3.2-5.4s3.9,0.5,4.6,2.3c0.3,0.8,0.2,1.6,0.2,2.5c-0.1,1.9-0.3,3.9-1.5,5.5c-1.1,1.6-3.4,2.5-5,1.4"/>
</g>
<g>
	<path fill="none" stroke="#000000" stroke-width="3" stroke-linecap="round" stroke-linejoin="round" stroke-miterlimit="10" d="
		M281.9,252.3c-2.3-0.8-4.7-1.2-7.1-1.1c-1,0-2.1,0.1-3,0.6c-1.2,0.6-2,1.7-2.6,2.8c-2.1,3.7-2,8.6,0.1,12.2
		c0.9,1.5,2.1,2.9,2.8,4.4c0.9,1.9,1,4,1.6,6.1c0.6,2,2,4,4,4.4c2.6,0.4,4.8-1.9,6-4.2c2,2.5,5.2,4.5,8.2,3.3
		c2.9-1.2,3.7-4.6,4.4-7.6c1.1-4.2,2.5-8.4,4.3-12.3c1.2-2.6,2.6-5.5,1.5-8.2c-0.9-2.2-3.3-3.4-5.5-4.2c-2.5-0.9-5.2-1.4-7.8-1
		c-2.7,0.4-5.2,1.8-6.5,4 M282.6,253.1c-0.3-3.4-2.8-6.5-6-7.6"/>
	<path fill="none" stroke="#000000" stroke-width="3" stroke-linecap="round" stroke-linejoin="round" stroke-miterlimit="10" d="
		M281.9,250.3c0.2-2.1-0.4-4.1,0.3-6.1s2.6-3.4,4.3-4.5c-0.3,1.9,0.7,3.8,0.4,5.7c-0.4,2.2-2.3,3.5-4,4.8 M276.4,255.8
		c-1.6,0.3-3.5-0.5-4.7,0.6c-0.7,0.6-0.8,1.6-0.8,2.5c0.1,1.5,0.6,2.9,1.4,4 M275,256.6c-1.9,1.4-2.8,3.9-2.3,6.2"/>
</g>
<path fill="none" stroke="#000000" stroke-width="3" stroke-linecap="round" stroke-linejoin="round" stroke-miterlimit="10" d="
	M420.9,280.6c-0.1-1.4,1.9-2.3,3.1-1.5c1.2,0.7,1.6,2.3,1.4,3.6c-0.2,1.6-1,3.1-2.3,3.9c-0.9,0.6-2,0.8-3,1
	c-8.1,1.7-16.2,3.4-24.2,5.1c-1.4,0.3-3,0.7-3.7,1.8c-1.2,1.6-0.5,3.9,1,5.2s3.4,1.8,5.3,2.3c10.2,2.5,20.5,4.8,30.7,7.3
	c4,1,8.9,1.8,12-1.1c1-0.9,1.8-2.4,1.4-3.6c-0.3-1.1-1.3-1.9-2.2-2.6c-4.2-3.3-8.5-6.4-12.6-9.7c-0.8-0.6-1.7-1.3-2.3-2.1
	c-0.7-0.9-1.2-1.8-1.7-2.8c-0.2-0.6-0.4-1.2-0.2-1.8c0-0.1,0-0.1,0.1-0.2h0.1c0.2,0,0.4,0.1,0.7,0.1c0.2,0,0.5,0,0.6-0.2v-0.1
	c0-0.1-0.1-0.1-0.1-0.2c-0.2-0.1-0.3-0.2-0.5-0.3s-0.3-0.3-0.2-0.5s0.4-0.2,0.7-0.2s0.5-0.1,0.8-0.1c0.1,0,0.1,0,0.2-0.1
	s0-0.4-0.2-0.5s-0.4-0.1-0.6-0.2s-0.3-0.3-0.2-0.5"/>
<g>
	<path fill="none" stroke="#000000" stroke-width="3" stroke-linecap="round" stroke-linejoin="round" stroke-miterlimit="10" d="
		M494.5,302.5c3.8,3.5,7.8,7.1,11.6,10.5c1.9,1.7,3.8,3.7,3.4,6.2c-0.8-0.2-1.6-0.4-2.5-0.5c-0.5-0.1-1-0.2-1.4-0.4
		s-0.8-0.6-1.2-0.9c-4.3-3.9-8.7-8-13.1-11.9c-0.6-0.5-1.1-1-1.3-1.8c-0.2-0.9,0.3-1.9,1.1-2.3c0.8-0.4,1.9-0.1,2.4,0.7"/>
	<path fill="none" stroke="#000000" stroke-width="3" stroke-linecap="round" stroke-linejoin="round" stroke-miterlimit="10" d="
		M496.3,303.5c1-1.6,2.1-3.3,1.8-5c-0.3-1.8-1.9-3.1-3.4-3.9c-0.8-0.4-1.8-0.8-2.7-0.9c-1.5-0.1-3,0.6-3.9,1.7
		c-1.1,1-1.8,2.4-2.5,3.6c-0.5,1.1-1,2.3-0.9,3.5c0.1,1.3,0.8,2.4,1.5,3.4c1,1.4,2.1,2.7,3.6,3.3c1.6,0.6,3.5,0.4,4.4-1"/>
	<path fill="none" stroke="#000000" stroke-width="3" stroke-linecap="round" stroke-linejoin="round" stroke-miterlimit="10" d="
		M494.2,294.3c-1.4-0.9-3.1-1-4.6-1c-0.7,0-1.4-0.1-2.1,0.2c-0.5,0.2-1,0.6-1.4,1c-2.1,2.1-3.2,5-2.8,8c0.4,2.9,2.4,5.5,5.1,6.5"/>
	<path fill="none" stroke="#000000" stroke-width="3" stroke-linecap="round" stroke-linejoin="round" stroke-miterlimit="10" d="
		M482.1,300.8c-1.7-1.9-3.4-3.6-5.4-5c-0.4-0.3-0.8-0.5-1-1s0-1,0.3-1.5c1-1.9,2.6-3.4,4.5-4.3c0.3-0.1,0.6-0.3,0.9-0.3
		c1.2-0.2,2.4,0.6,3.4,1.4c1.2,1,2.4,1.9,3.5,2.9"/>
	<path fill="none" stroke="#000000" stroke-width="3" stroke-linecap="round" stroke-linejoin="round" stroke-miterlimit="10" d="
		M484,289.3c0.1-1.3,0.2-2.6,0.3-3.8c0-0.4,0-0.7-0.1-1c-0.2-0.4-0.5-0.6-0.9-0.8c-1.6-1-3.4-2-5.3-1.8c-2.3,0.2-4,2-5.3,3.8
		c-1.1,1.6-2,3.4-2.2,5.3c-0.2,2,0.5,4,2,5.2c1.5,1.3,3.9,1.4,5.3,0.1"/>
</g>
<g>
	<path fill="none" stroke="#000000" stroke-width="3" stroke-linecap="round" stroke-linejoin="round" stroke-miterlimit="10" d="
		M284.5,218.2c2.4-4.1,4.7-8.4,7.6-12.2c3.4-4.5,7.6-8.7,10-13.9c2.2-4.6,2.7-9.9,4.9-14.5c-2.3-3.4-6.8-4.2-10.7-4.7
		c-3.3-0.5-6.6-0.9-9.9-0.9c-2.4,0-4.7,0.3-7.2,0.5c-0.7,0.1-1.4,0.2-1.9,0.6c-0.6,0.5-0.8,1.4-0.9,2.2c-2.1,15,5.4,29.6,7.5,44.6"
		/>
	<path fill="none" stroke="#000000" stroke-width="3" stroke-linecap="round" stroke-linejoin="round" stroke-miterlimit="10" d="
		M306.9,178.1c1.5,0.3,3.2,0,4.2-1.1c1.1-1.1,1.4-3,0.4-4c-0.4-0.4-0.8-0.7-1.3-1c-9.9-5.7-22.1-7.3-32.9-4c0.9,1.1,1.4,2.6,0.8,3.8
		c-0.5,1.3-2.3,2.1-3.4,1.2c-1-0.7-1-2.3-0.3-3.3s2-1.4,3.3-1.3 M299.9,182.3c0.5,0.8,1,1.8,0.7,2.7c-0.2,0.6-0.7,0.9-1.3,1.2
		c-2.1,0.9-4.6-0.1-5.7-2.1c-0.2-0.3-0.3-0.7-0.3-1c0-0.8,0.7-1.4,1.4-1.8c1-0.6,2.1-1,3.2-1s2.3,0.6,2.8,1.6 M285.5,179.7
		c0.7,1.1,1.2,2.4,1,3.5c-0.2,1.3-1,2.5-2.3,2.8c-0.3,0.1-0.6,0.1-0.9,0c-0.2-0.1-0.4-0.2-0.6-0.4c-0.6-0.4-1.2-0.9-1.8-1.3
		c-0.4-0.3-0.8-0.6-1-1c-0.3-0.6-0.1-1.4,0.4-2c0.5-0.5,1.1-0.9,1.8-1.2c0.8-0.3,1.6-0.6,2.4-0.6s1.7,0.5,2,1.3 M290.8,194.1
		c-0.1,0.9-0.8,1.7-1.7,2.1c-0.9,0.4-1.8,0.4-2.7,0.1c-0.6-0.2-1.2-0.5-1.6-1c-0.6-0.8-0.7-1.9-0.3-2.8s1.2-1.6,2.1-2
		c0.5-0.2,1.2-0.3,1.7-0.1c0.3,0.1,0.5,0.4,0.7,0.6c1,1,2,2.1,2.2,3.4 M290.6,204.5c-0.9,0.8-2,1.4-3.1,1.8
		c-0.6,0.2-1.3,0.4-1.9,0.1c-0.2-0.1-0.4-0.3-0.6-0.5c-0.7-0.7-1.3-1.6-1.5-2.6s0-2.1,0.7-2.8c1.1-1,2.9-0.8,4,0.2
		c1.2,1,1.7,2.5,2,3.8"/>
</g>
<g>
	<path fill="none" stroke="#000000" stroke-width="3" stroke-linecap="round" stroke-linejoin="round" stroke-miterlimit="10" d="
		M490.1,351.9c-1.6-0.2-3.2,1.3-3.3,3s0.8,3.3,2,4.3c1.1,1,2.6,1.7,4,1.8c1.5,0.1,3.1-0.6,3.8-1.9c0.7-1.3,0.8-2.9,0.7-4.4
		c0-0.4-0.1-0.9-0.3-1.2s-0.6-0.5-0.9-0.7c-2-0.9-4.1-1.4-6.3-1.4"/>
	<path fill="none" stroke="#000000" stroke-width="3" stroke-linecap="round" stroke-linejoin="round" stroke-miterlimit="10" d="
		M484.7,348.6c-1.1,0.8-1.4,2.6-0.6,3.6c0.8,1.1,2.5,1.5,3.6,0.9c1.2-0.6,1.9-2.2,1.5-3.5c0-0.2-0.1-0.3-0.2-0.4
		c-0.2-0.1-0.4-0.1-0.6-0.1h-6"/>
	<path fill="none" stroke="#000000" stroke-width="3" stroke-linecap="round" stroke-linejoin="round" stroke-miterlimit="10" d="
		M488.9,351c1.9-1.6,3.4-3.6,4.3-5.9c0.2-0.4,0.4-0.9,0.7-1.2c1.1-1,3,0.1,4.2-0.7 M490.1,351.3c1.3-0.8,2.6-1.6,3.7-2.4
		c1.1-0.7,2.1-1.4,3.4-1.6c1.2-0.3,2.6,0,3.4,1 M491.2,351h9.4c1.5,0,3.4,0.2,4.1,1.5 M487.5,352.7c-2.6,0.4-4.7,2.5-7.3,3
		c-0.9,0.2-1.8,0.2-2.6,0.7s-1.1,1.7-0.4,2.2 M486,353.9c-1.5,1.6-3,3.2-4.4,4.7c-0.3,0.3-0.6,0.6-0.7,1c-0.2,0.5-0.1,1,0,1.4
		c0.1,1.1,0,2.2-0.4,3.3 M485.7,355.8c-0.3,2.3-0.7,4.5-0.5,6.7c0.2,2.3,0.9,4.5,2.5,6.2"/>
	<path fill="none" stroke="#000000" stroke-width="3" stroke-linecap="round" stroke-linejoin="round" stroke-miterlimit="10" d="
		M488.4,353.1h-13c-0.3,0-0.6,0-0.9,0.1s-0.5,0.4-0.6,0.7c-0.7,1-1.4,2.1-2.1,3.1 M490.1,349.5c-0.8-1.5-1.4-3.2-1.8-4.8
		c-0.2-1.1-0.2-2.4,0.7-3c0.8-0.4,2-0.3,2.2-1.2 M488.8,353.3c-0.3,0.6-0.4,1.2-0.4,1.9c0.4-0.7,0.8-1.4,1.2-2
		c-0.5,0.9-0.8,1.9-0.9,3c0.6-1.2,1.2-2.5,1.8-3.6c0.2,1.7,0,3.4-0.4,4.9c0.5-1.6,1-3.1,1.8-4.4c0,1.8-0.2,3.6-0.4,5.4
		c0.4-1.7,0.9-3.4,1.3-5c0.2,2,0.1,4-0.2,6c0.8-1.9,1.6-3.6,2.4-5.5v4.7c0.2-1.2,0.6-2.4,1.1-3.5c0,1.1,0,2.2-0.2,3.3
		c0-0.7,0.1-1.4-0.1-2.1s-0.5-1.4-1.1-1.8c-0.9-0.6-2.2-0.4-3.2,0.2c-0.9,0.6-1.6,1.6-2.2,2.5c-0.1-1.3-0.1-2.7,0.1-3.9
		c-0.3,1.6,0.3,3.4,1.5,4.4 M484.6,349.9c-0.2,0.5-0.3,1-0.2,1.5c0.3-0.4,0.6-0.8,0.7-1.3v1.7c0.2-0.6,0.4-1.2,0.5-1.9v1.6
		c0.4-0.5,0.6-1.2,0.7-1.8c0.1,0.7,0.3,1.4,0.5,2.1c0.4-0.3,0.6-0.8,0.7-1.3v1"/>
	<path fill="none" stroke="#000000" stroke-width="3" stroke-linecap="round" stroke-linejoin="round" stroke-miterlimit="10" d="
		M488.6,352.6c-0.1,1.3-0.2,2.6-0.3,3.8c0.6-0.8,1-1.7,1.2-2.7c-0.2,1.2,0.1,2.4,0.5,3.5c0.2,0.6,0.4,1.3,0.9,1.8
		c0.6,0.5,1.4,0.7,2.2,0.6c0.8-0.2,1.5-0.6,2-1.2c0.1,0.2,0.1,0.4,0,0.6c0.8-1.9,1.4-3.8,1.7-5.8c-0.4,0.6-0.7,1.2-1.1,1.9
		c0-1.3-0.1-2.6-0.4-3.8c-0.9,0.8-1.7,1.7-2.2,2.8c-0.3-0.7-0.7-1.4-1-2.1c-0.4,0-0.5,0.5-0.6,0.8s-0.4,0.8-0.7,0.6"/>
	<path fill="none" stroke="#000000" stroke-width="3" stroke-linecap="round" stroke-linejoin="round" stroke-miterlimit="10" d="
		M485,349.9c1.3,0.2,2.6,0.2,3.8,0c-0.2,1.2-0.2,2.4-0.1,3.5c0.1,1.9,0.7,3.7,1.4,5.5c-0.7-0.7-1.4-1.3-2.1-2
		c0.5,1.3,2.2,1.9,3.3,1.2s1.5-2.1,1.7-3.3c0,1.8,0.3,3.4,0.8,5.1c0.4-2.1,0.7-4.1,1.1-6.3c0.1,1.2,0.3,2.4,0.4,3.6
		c0.1-1.2,0.1-2.4,0.2-3.6c0.4,0.6,0.7,1.4,0.7,2.1c-1,0.1-2-0.1-3-0.5c0.2-0.3,0.4-0.7,0.6-1c-1.6,1.4-3.1,2.7-4.6,4
		c-0.2-0.9-0.1-1.9,0.4-2.7"/>
</g>
<g>
	<path fill="none" stroke="#000000" stroke-width="3" stroke-linecap="round" stroke-linejoin="round" stroke-miterlimit="10" d="
		M145.8,258.2c6-0.4,12,0.5,17.6,2.5c2.4,0.8,4.6,1.9,6.3,3.6c2.8,2.9,3.4,7.1,3.4,11.1c0,1.9-0.2,3.8-1,5.6
		c-1.9,4.2-6.6,6.2-11.1,7.2c-6.3,1.4-13.5,1.1-18.7-2.7c-4.6-3.4-7.2-9.5-6.4-15.1c0.8-5.7,5-10.7,10.4-12.6"/>
	<path fill="none" stroke="#000000" stroke-width="3" stroke-linecap="round" stroke-linejoin="round" stroke-miterlimit="10" d="
		M159.9,260.5c-0.5,4.2-1,8.5-1.3,12.7c-0.1,1.4-0.1,3,0.9,3.9c0.6,0.6,1.5,0.8,2.4,1c2.8,0.6,5.7,0.7,8.5,0.4 M144.6,272.5
		c-3.4-0.6-6.7-2.1-10-3.4c-10.2-3.9-21.3-5.7-32.2-5.2 M150.5,260.8c0.3-9.7,0.1-19.4-0.6-29.1 M114.8,216.4
		c-2.3,0.1-4.1,1.5-5.9,2.8c-2,1.5-4.1,3.1-5.3,5.2c-1.5,2.7-1.5,5.9-1.4,9c0,1.4,0.1,2.9,0.9,3.9c1.1,1.6,3.3,1.9,5.1,2.1"/>
	<path fill="none" stroke="#000000" stroke-width="3" stroke-linecap="round" stroke-linejoin="round" stroke-miterlimit="10" d="
		M159.3,227.8c1.5,0.7,2.9,1.6,4,2.8c2.9,2.9,1.2,7.8-2.9,8.1c-15.3,1.4-30.9-0.3-45.5-5c-0.6-0.2-1.1-0.6-1.4-1.1
		c-0.5-1,0.2-1.8,0.8-2.4c11.5-11.1,28.6-16.1,44.3-12.9 M163.6,291.5c0.7,4.4,1.8,8.9,3.4,13.1 M142.9,289.3
		c-0.9,1.4-1.9,2.8-3,3.9 M129.7,292.9c2.7,0.8,4.9,2.6,7.4,3.8c3.3,1.8,7,3,10.6,3.4 M169.3,308.1c9.1-0.4,18.1-1.7,26.9-3.8
		 M160.3,304.8c7,0.6,14-0.2,20.7-2.4"/>
	<path fill="none" stroke="#000000" stroke-width="3" stroke-linecap="round" stroke-linejoin="round" stroke-miterlimit="10" d="
		M141.9,232.9c-3.1-0.7-6-2-8.7-3.7c-1-0.6-2-1.6-1.8-2.7c0.2-1.3,1.8-1.8,3.2-1.9c4-0.4,8.1-0.5,12.2-0.3 M102.4,256.5
		c3-1,6.6,0.1,8.5,2.7c2.1,2.8,1.9,6.9-0.3,9.6c-2.2,2.7-6.2,3.5-9.4,2.3c-2.2-0.9-3.9-2.9-4.6-5c-0.3-0.9-0.4-1.9-0.1-2.9
		c0.2-0.6,0.6-1.2,1.1-1.7c1.5-1.8,3.3-3.4,5.2-4.6 M108.8,258.2c-2.9,3.1-5.5,6.2-8,9.6 M101.1,258.5l6.9,10.2 M111.9,262.3
		c-3.8,2.4-8.5,3.4-13,3 M98.9,261.3c2.8,2.1,5.7,3.9,8.8,5.6"/>
</g>
<g>
	<path fill="none" stroke="#000000" stroke-width="3" stroke-linecap="round" stroke-linejoin="round" stroke-miterlimit="10" d="
		M232.1,226.5c-1.4-2.1-4.3-2.6-6.8-2.3s-5,0.9-7.5,0.3c-3.1-0.8-5.3-3.6-5.7-6.8c-0.5-3.1,0.7-6.3,2.8-8.7c1.3-1.6,3.1-2.9,5.1-3.2
		c1.9-0.3,3.7,0.4,5.4,1.3c2.1,1.2,3.7,2.9,5,4.8c1.5,2.3,2.3,5,4.1,7c0.6,0.7,1.3,1.2,1.7,2c0.6,1.3,0.3,2.9-0.5,4
		c-0.8,1.2-2,2.1-3.2,2.9"/>
	<path fill="none" stroke="#000000" stroke-width="3" stroke-linecap="round" stroke-linejoin="round" stroke-miterlimit="10" d="
		M234.1,225.4l-2.1-1.5c-0.5-0.4-1.1-0.8-1.4-1.3s-0.3-1.3,0.2-1.8c0.1-0.1,0.2-0.1,0.3-0.1s0.2,0.1,0.2,0.1
		c0.2,0.1,0.4,0.2,0.5,0.4s0,0.5-0.2,0.6c-0.1,0-0.3,0-0.4-0.1c-0.5-0.3-0.9-0.7-1.1-1.3c-0.1-0.3-0.1-0.6,0-0.8
		c0.2-0.2,0.5-0.3,0.8-0.2s0.5,0.3,0.8,0.5c1.1,0.9,2.2,1.9,3.3,2.8"/>
	<path fill="none" stroke="#000000" stroke-width="3" stroke-linecap="round" stroke-linejoin="round" stroke-miterlimit="10" d="
		M232.8,227.3c0.7,1.3,1.7,2.5,2.8,3.4c0.3,0.2,0.5,0.5,0.9,0.5c0.5,0.1,1.1-0.2,1.5-0.5c0.8-0.7,1.6-1.5,2.1-2.4
		c0.2-0.3,0.3-0.6,0.3-0.9c0.1-0.5-0.1-1.1-0.4-1.6c-0.9-1.9-2.4-3.5-4-4.8 M235.2,229.8c1.4-1.1,2.7-2.4,3.5-3.9 M234.7,228.8
		c1-1.5,1.9-3.1,2.7-4.6 M238.1,231.3c0.6,0.1,1.3,0.1,1.8-0.2c0.3-0.1,0.7-0.4,0.8-0.7c0.3-0.7-0.1-1.4-0.5-2"/>
</g>
<g>
	<path fill="none" stroke="#000000" stroke-width="3" stroke-linecap="round" stroke-linejoin="round" stroke-miterlimit="10" d="
		M119.9,378.7c-4.4,0.6-9.1-0.8-13.3,0.7c-4.7,1.8-7.5,6.8-8.9,11.6c-1.1,4.1-1.5,8.5-1.2,12.8c0.1,1.2,0.3,2.6,1.2,3.4
		c0.5,0.5,1.2,0.8,2,1c4.4,1.4,9.5,1,13.6-1.3s7.3-6.1,8.6-10.6c0.5-1.6,0.7-3.4,0.3-5c-0.4-1.6-1.3-3.1-2.2-4.4
		c-1.4-2.2-2.9-4.3-4.2-6.5 M109.8,390.6c-0.6-9.5-0.3-18.9,0.9-28.4 M111,367.7c5.7,1,9.9,5.8,14,9.9c7.9,7.8,17.1,13.8,26.4,19.8"
		/>
	<path fill="none" stroke="#000000" stroke-width="3" stroke-linecap="round" stroke-linejoin="round" stroke-miterlimit="10" d="
		M110.1,363.9c12.4,0.2,24.8,0.1,37.3-0.3l-0.6,38.4"/>
	<path fill="none" stroke="#000000" stroke-width="3" stroke-linecap="round" stroke-linejoin="round" stroke-miterlimit="10" d="
		M146.1,365.9c2.6,0.3,4.9,1.8,7,3.4c5.4,3.9,10.4,8.4,14.9,13.3 M150.7,396c8.1,1.3,15.8-3.4,23.9-4.2"/>
	<path fill="none" stroke="#000000" stroke-width="3" stroke-linecap="round" stroke-linejoin="round" stroke-miterlimit="10" d="
		M175.7,367.4c-3.6-0.8-7.6,1.1-10.1,3.9s-3.7,6.6-4.4,10.2c-1.3,6.1-1.4,12.6,1.4,18.2c2.8,5.5,9,9.8,15.1,8.7
		c5.3-0.9,9.4-5.4,11.2-10.4c1.9-5,1.8-10.5,1.5-15.9c-0.2-3.1-0.4-6.1-1.4-8.9c-2.2-6-9.1-10.6-15.2-8.6 M141.5,364.6v-12.8
		 M134.1,352.3h13.8 M108.4,363.1c0.2-2.9,0.2-5.7-0.7-8.4c-0.8-2.7-2.7-5.2-5.2-6.4c-2.8-1.2-6.1-0.7-8.5,1.1s-3.8,4.6-4.2,7.6
		c-0.2,1.4,0,3.1,1,4c1.3,1.2,3.3,0.9,4.9,0.6"/>
	<path fill="none" stroke="#000000" stroke-width="3" stroke-linecap="round" stroke-linejoin="round" stroke-miterlimit="10" d="
		M168,384.3c1.6-0.4,3.1,0.8,4,2.2c0.9,1.3,1.6,2.9,2.8,3.9 M142.4,403c1.7-0.2,3.4,0.1,4.9,0.8"/>
</g>
<g>
	<path fill="none" stroke="#000000" stroke-width="3" stroke-linecap="round" stroke-linejoin="round" stroke-miterlimit="10" d="
		M435,343.5c-3.4-1.2-7.4,0.2-10.1,2.7s-4.3,5.9-5.6,9.3c-1.3,3.2-2.4,6.6-1.9,10c0.5,3.8,2.9,7.3,6,9.5c3.2,2.3,7,3.4,10.7,3.6
		c2,0.2,4,0.1,5.9-0.4c1.7-0.5,3.3-1.4,4.6-2.6c5.6-4.4,8.3-12.3,6.3-19.2s-8.8-12.1-15.9-12"/>
	<path fill="none" stroke="#000000" stroke-width="3" stroke-linecap="round" stroke-linejoin="round" stroke-miterlimit="10" d="
		M420.5,354.6c4,3.1,6.7,8.1,6.2,13.1c-0.3,2.6-1.4,5-2.4,7.4 M438.2,345.7c0,1.1,0.1,2.2,0.3,3.3c0.3,1.3,0.7,2.5,1.1,3.7
		c0.9,2.7,2,5.4,3.5,7.8s3.9,4.3,6.7,5c-0.3-0.1-0.6-0.2-0.8-0.3"/>
	<path fill="none" stroke="#000000" stroke-width="3" stroke-linecap="round" stroke-linejoin="round" stroke-miterlimit="10" d="
		M417.6,364.7c1.6-0.1,3.2-0.2,4.8-0.2c1.5-0.1,2.9-0.1,4.3-0.4c1.6-0.3,3.2-0.8,4.7-1.2c3.3-1,6.6-2.1,9.6-3.7
		c3-1.7,5.6-4.2,6.9-7.4"/>
	<path fill="none" stroke="#000000" stroke-width="3" stroke-linecap="round" stroke-linejoin="round" stroke-miterlimit="10" d="
		M426.9,343.1c0.1,2.9,1.9,5.3,3.4,7.8c5,8,7.4,17.5,6.8,27c0,0.2-0.1,0.4-0.2,0.4c-0.2,0-0.2-0.3-0.1-0.3"/>
</g>
<path fill="#FFD139" d="M321.2,351.4c4.8-8.1,9-12.9,14.4-20.2c1.1-1.5,6.1-3.4,8-3.4c2.1,0,3.9,1.5,5.2,3.2
	c3.4,4.4,6.6,11.6,5.4,17.1s-6.6,9.5-10.8,13.2c3.4-3.3,6.7-6.4,10.2-9.7c0.8-0.8,1.6-1.5,2.7-1.8c2.3-0.7,4.4,1.2,5.8,3.1
	c11.5,15.2,4.3,23.7-4.9,30.2c2.9-2.6,5.6-5.1,8.5-7.6c0.6-0.6,1.3-1.1,2.1-1.3c1.1-0.2,2.2,0.3,3.2,1c8.5,5.8,10.2,19.4,3.5,27.3
	c-2.6,3-5.9,5-9.2,7.1c-8.3,5.1-16.4,10.5-23.6,17.1c-13.8,12.7-16.9,15.9-33.7,24.1c0,0-2.3-0.3-6-0.7c-5-0.7-10-0.7-14.9-1.7
	c-23.7-8.9-47.3-23.7-73.9-14.8c10.8-12.8,30.6-21.7,30.7-40.9c1.1-3.1,2.1-6.1,2.7-8.7s1-4.7,0.8-6c-1.5-10.4-10.9-37.5-10.9-41.7
	c0-4.3-1.5-6.9-2.4-11.1c-1-4.8,0.6-6.6,0-11.9c-0.5-4.9-1.8-17.6,0.4-22c6-2.4,14.2,0,18.7,4.6c5.6,5.7,6.4,14.2,8.8,21.9
	c1.3,4.2,2.1,8.7,3.4,13c3,10.2,5.2,11,12.8,18.5c2.4-0.3,7.4-3.7,8.8-5.7c23.4-33.8,51.8-60.6,72.8-95.9c0.2-0.3,0.3-0.5,0.6-0.8
	c8.4-11.2,26.1-2.4,22.4,11.1c-0.3,1-0.6,2-0.9,2.8c-2.8,7.8-7.5,14.7-12.1,21.6c-10.8,16.2-37.9,53.3-48.8,69.5L321.2,351.4
	L321.2,351.4z"/>
<path fill="none" stroke="#000000" stroke-width="3" stroke-linecap="round" stroke-linejoin="round" stroke-miterlimit="10" d="
	M204.6,436.2l21.9-21.9c3.1-3.1,6.1-6.2,7.7-10.2c1.9-4.8,9.8-24.1,9.1-29.3c-1.5-10.4-10.9-37.5-10.9-41.7c0-4.3-1.5-6.9-2.4-11.1
	c-1-4.8,0.6-6.6,0-11.9c-0.5-4.9-1.8-17.6,0.4-22c6-2.4,14.2,0,18.7,4.6c5.6,5.7,6.4,14.2,8.8,21.9c1.3,4.2,2.1,8.7,3.4,13
	c3,10.2,5.2,11,12.8,18.5c2.4-0.3,7.4-3.7,8.8-5.7c23.4-33.8,51.8-60.6,72.8-95.9c0.2-0.3,0.3-0.5,0.6-0.8
	c8.4-11.2,26.1-2.4,22.4,11.1c-0.3,1-0.6,2-0.9,2.8c-2.8,7.8-7.5,14.7-12.1,21.6c-10.8,16.2-37.9,53.3-48.8,69.5"/>
<path fill="none" stroke="#000000" stroke-width="3" stroke-linecap="round" stroke-linejoin="round" stroke-miterlimit="10" d="
	M317.3,348.5c4.8-8.1,9-12.9,14.4-20.2c1.1-1.5,6.1-3.4,8-3.4c2.1,0,3.9,1.5,5.2,3.2c3.4,4.4,6.6,11.6,5.4,17.1s-6.6,9.5-10.8,13.2
	c3.4-3.3,6.7-6.4,10.2-9.7c0.8-0.8,1.6-1.5,2.7-1.8c2.3-0.7,4.4,1.2,5.8,3.1c11.5,15.2,4.3,23.7-4.9,30.2c2.9-2.6,5.6-5.1,8.5-7.6
	c0.6-0.6,1.3-1.1,2.1-1.3c1.1-0.2,2.2,0.3,3.2,1c8.5,5.8,10.2,19.4,3.5,27.3c-2.6,3-5.9,5-9.2,7.1c-8.3,5.1-16.4,10.5-23.6,17.1
	c-13.8,12.7-16.9,15.9-33.7,24.1"/>
<path fill="none" stroke="#000000" stroke-width="3.596" stroke-linecap="round" stroke-linejoin="round" stroke-miterlimit="10" d="
	M366.4,223.8c-2.3-2.2-3.4-6.3-3.4-10.2s0.7-7.5,1.3-11.2c0.3-1.7,0.5-3.5-0.1-5c-0.3-0.8-0.9-1.4-1.3-2.2c-1.2-2-1.7-4.6-1.9-7.2
	c-0.4-4.3-0.4-8.8,0.2-13"/>
<path fill="none" stroke="#000000" stroke-width="3" stroke-linecap="round" stroke-linejoin="round" stroke-miterlimit="10" d="
	M232.6,329l4.6-1.7 M230.8,322.2c1.1,0.2,2.3,0.5,3.4,0.7 M233.3,334.7c-0.1-1.2,0.6-2.5,1.7-3.1 M230.5,287.9
	c0.9,2.2,1.8,4.2,2.7,6.4c1.4,3.4,2.9,6.9,2.8,10.5s-1.8,7.6-5.2,9 M355.9,253.2c1.5-4.3,4.7-8,8.9-10.1c1.2-0.6,2.6-1.1,3.8-0.7
	c1.7,0.5,2.7,2.3,3.4,3.8c0.9,2,1.7,4.1,1.8,6.3c0.1,2.6-0.9,5.1-2.2,7.4c-1.4,2.6-3.5,5.2-6.5,5.1c-2.5-0.1-4.4-2.2-5.8-4.3
	c-1-1.6-1.9-3.2-2.6-4.8c-0.7-1.5-1.2-3.4-0.3-4.7 M331,297.5c1.9,3.2,4.4,6,7.5,8.1 M333,294.2c1.9,3.2,4.6,5.8,7.9,7.7
	 M337.3,293.8c1.5,2.4,4.3,3.4,5.9,5.7 M332.8,290c2.8-0.1,5.5,0.9,7.7,2.5 M305.7,329.1c1.7,3.2,4.1,5.8,7.2,7.7"/>
<path fill="none" stroke="#000000" stroke-width="3.596" stroke-linecap="round" stroke-linejoin="round" stroke-miterlimit="10" d="
	M376.8,232.3c-2-1.3-2.3-5-2.3-8c0.1-5,0.3-10.1,0.7-15c0.2-2.2,0.4-4.4,0-6.7 M358.2,233.2c0-2.2-0.8-4.1-1.5-6.1
	c-1.7-5.2-1.9-11-2.1-16.8"/>
</svg>
