<?xml version="1.0" encoding="utf-8"?>
<!-- Generator: Adobe Illustrator 21.0.2, SVG Export Plug-In . SVG Version: 6.00 Build 0)  -->
<svg version="1.1" id="Layer_1" xmlns="http://www.w3.org/2000/svg" xmlns:xlink="http://www.w3.org/1999/xlink" x="0px" y="0px"
	 viewBox="0 0 24 24" style="enable-background:new 0 0 24 24;" xml:space="preserve">
<style type="text/css">
	.st0{opacity:0.2;}
</style>
<path class="st0" d="M12,0C5.4,0,0,5.4,0,12s5.4,12,12,12c6.6,0,12-5.4,12-12S18.6,0,12,0z M20.3,7.2h-3.5c-0.4-1.5-0.9-2.9-1.7-4.3
	C17.3,3.7,19.2,5.2,20.3,7.2z M12,2.4c1,1.4,1.8,3,2.3,4.8H9.7C10.2,5.5,11,3.9,12,2.4z M2.7,14.4c-0.2-0.8-0.3-1.6-0.3-2.4
	s0.1-1.6,0.3-2.4h4.1c-0.1,0.8-0.2,1.6-0.2,2.4s0.1,1.6,0.2,2.4H2.7z M3.7,16.8h3.5c0.4,1.5,0.9,2.9,1.7,4.3
	C6.7,20.3,4.8,18.8,3.7,16.8z M7.2,7.2H3.7c1.2-2,3-3.5,5.2-4.3C8.2,4.3,7.6,5.7,7.2,7.2z M12,21.6c-1-1.4-1.8-3-2.3-4.8h4.6
	C13.8,18.5,13,20.1,12,21.6z M14.8,14.4H9.2C9.1,13.6,9,12.8,9,12s0.1-1.6,0.2-2.4h5.6c0.1,0.8,0.2,1.6,0.2,2.4S14.9,13.6,14.8,14.4
	z M15.1,21.1c0.7-1.3,1.3-2.8,1.7-4.3h3.5C19.2,18.8,17.3,20.3,15.1,21.1z M17.2,14.4c0.1-0.8,0.2-1.6,0.2-2.4s-0.1-1.6-0.2-2.4h4.1
	c0.2,0.8,0.3,1.6,0.3,2.4s-0.1,1.6-0.3,2.4H17.2z"/>
</svg>
